<?xml version="1.0" encoding="UTF-8"?>
<!DOCTYPE svg PUBLIC "-//W3C//DTD SVG 1.1//EN" "http://www.w3.org/Graphics/SVG/1.1/DTD/svg11.dtd">
<svg xmlns="http://www.w3.org/2000/svg" version="1.1" width="644px" height="630px" style="shape-rendering:geometricPrecision; text-rendering:geometricPrecision; image-rendering:optimizeQuality; fill-rule:evenodd; clip-rule:evenodd" xmlns:xlink="http://www.w3.org/1999/xlink">
<g><path style="opacity:0.987" fill="#000000" d="M 256.5,191.5 C 309.848,190.058 361.515,198.558 411.5,217C 420.628,220.093 429.961,221.76 439.5,222C 441.298,219.528 443.632,217.861 446.5,217C 456.159,215.147 465.826,215.147 475.5,217C 483.5,218.832 490.5,222.499 496.5,228C 507.333,238.833 518.167,249.667 529,260.5C 532.308,266.95 536.474,272.783 541.5,278C 559.137,290.342 575.47,304.342 590.5,320C 599.344,320.616 608.178,320.45 617,319.5C 621.156,319.457 625.156,320.124 629,321.5C 629.445,323.594 628.612,325.094 626.5,326C 617.637,329.399 608.637,332.399 599.5,335C 609.605,353.256 613.438,372.756 611,393.5C 605.653,424.544 587.487,438.377 556.5,435C 534.722,427.893 522.555,413.06 520,390.5C 520.5,389.333 521.333,388.5 522.5,388C 526.76,387.191 530.76,385.691 534.5,383.5C 534.729,395.795 539.729,405.961 549.5,414C 558.003,420.702 567.336,422.369 577.5,419C 585.826,412.049 589.492,403.049 588.5,392C 588.568,380.205 585.401,369.371 579,359.5C 577.2,357.683 575.034,356.516 572.5,356C 566.189,354.935 559.856,354.602 553.5,355C 552.718,357.74 552.218,360.574 552,363.5C 550.274,364.576 548.441,364.743 546.5,364C 537.995,357.911 528.995,352.578 519.5,348C 511.534,344.55 503.534,344.217 495.5,347C 493.04,348.458 490.873,350.291 489,352.5C 483.552,363.511 478.885,374.844 475,386.5C 470.667,392.167 465.667,397.167 460,401.5C 455.112,427.543 455.445,453.543 461,479.5C 466.869,503.439 474.535,526.772 484,549.5C 484.82,558.236 486.653,566.736 489.5,575C 487.874,576.819 485.874,578.152 483.5,579C 478.25,580.174 472.916,580.841 467.5,581C 459.292,584.402 450.959,587.402 442.5,590C 434.669,591.032 427.002,590.365 419.5,588C 413.623,586.125 410.956,582.125 411.5,576C 411.654,573.309 411.987,570.642 412.5,568C 406.406,537.418 402.24,506.584 400,475.5C 393.231,460.966 384.231,447.966 373,436.5C 370.83,431.983 368.663,427.483 366.5,423C 341.607,424.746 316.607,425.913 291.5,426.5C 281.145,426.425 270.812,425.925 260.5,425C 244.482,420.577 229.316,414.077 215,405.5C 212.667,423.819 210.333,442.152 208,460.5C 204.863,469.577 201.53,478.577 198,487.5C 193.169,507.428 192.502,527.428 196,547.5C 196.667,553.5 196.667,559.5 196,565.5C 189.633,568.126 182.966,569.459 176,569.5C 163.329,568.04 150.829,565.707 138.5,562.5C 139.094,549.515 139.427,536.515 139.5,523.5C 139.646,512.074 139.146,500.74 138,489.5C 135.014,513.518 134.847,537.518 137.5,561.5C 135.238,566.26 131.571,569.427 126.5,571C 110.208,575.149 94.5413,573.482 79.5,566C 77.2911,564.127 75.4578,561.96 74,559.5C 73.8401,545.437 74.8401,531.437 77,517.5C 78.3967,495.503 79.73,473.503 81,451.5C 81.4933,442.369 83.3266,433.536 86.5,425C 83.0957,413.575 81.429,401.908 81.5,390C 82.8009,367.848 83.8009,345.681 84.5,323.5C 84.1667,317.833 83.8333,312.167 83.5,306.5C 81.5414,307.748 80.0414,309.415 79,311.5C 55.4687,361.957 41.4687,414.957 37,470.5C 36.684,475.448 35.184,479.948 32.5,484C 27.5368,484.733 24.3701,482.567 23,477.5C 21.1083,471.175 21.1083,464.842 23,458.5C 30.6859,429.405 37.3526,400.071 43,370.5C 48.7977,344.109 56.7977,318.443 67,293.5C 75.5284,280.632 85.1951,268.632 96,257.5C 107.456,239.711 121.956,224.877 139.5,213C 150.591,207.779 162.257,204.446 174.5,203C 201.78,197.698 229.114,193.864 256.5,191.5 Z M 536.5,327.5 C 545.85,327.394 554.35,330.394 562,336.5C 563.602,338.369 564.602,340.369 565,342.5C 554.825,338.664 545.325,333.664 536.5,327.5 Z"/></g>
</svg>
